<?xml version="1.0" encoding="utf-8"?>
<!-- Generator: Adobe Illustrator 14.0.0, SVG Export Plug-In . SVG Version: 6.00 Build 43363)  -->
<!DOCTYPE svg PUBLIC "-//W3C//DTD SVG 1.1//EN" "http://www.w3.org/Graphics/SVG/1.1/DTD/svg11.dtd">
<svg version="1.1" id="Layer_1" xmlns="http://www.w3.org/2000/svg" xmlns:xlink="http://www.w3.org/1999/xlink" x="0px" y="0px"
	 width="2272px" height="1872px" viewBox="0 0 2272 1872" enable-background="new 0 0 2272 1872" xml:space="preserve">
<rect fill-rule="evenodd" clip-rule="evenodd" fill="#80583A" width="2272" height="1871.998"/>
<path fill-rule="evenodd" clip-rule="evenodd" fill="#593F2E" d="M450.832,855.407c80.322,0,145.833-13.57,145.833-30.208
	s-65.511-30.208-145.833-30.208c-80.322,0-145.833,13.57-145.833,30.208S370.51,855.407,450.832,855.407z"/>
<g>
	<path fill-rule="evenodd" clip-rule="evenodd" fill="#D2D3D4" d="M297.819,664.51c0,0-7.994-225.155,3.996-257.129
		c11.989-31.975,30.642-53.29,86.597-70.612c55.957-17.319,139.893-1.331,158.543,25.315c18.652,26.644,41.298,55.953,37.303,153.21
		c-3.998,97.257-2.664,150.549-2.664,150.549S412.394,689.825,297.819,664.51z"/>
	<path fill-rule="evenodd" clip-rule="evenodd" fill="#373435" d="M365.763,697.818c27.979,3.998,58.431,1.884,64.522-21.708
		c-30.298,0.106-62.042-1.158-92.065-4.826C338.22,671.285,337.785,693.823,365.763,697.818z"/>
	<path fill-rule="evenodd" clip-rule="evenodd" fill="#373435" d="M460.76,675.567c1.416,6.741,6.777,19.358,27.037,22.251
		c27.976,3.998,58.431,1.884,64.52-21.708c0.598-2.319,0.545-4.592-0.037-6.801C530.21,671.604,497.532,674.403,460.76,675.567z"/>
	<path fill-rule="evenodd" clip-rule="evenodd" fill="#EB9961" d="M298.663,423.374c0,0-72.632,37.887-3.432,87.553
		C295.381,475.95,296.293,443.268,298.663,423.374z"/>
	<path fill-rule="evenodd" clip-rule="evenodd" fill="#EB9961" d="M577.65,424.633c4.942,20.044,7.823,46.134,6.897,81.995
		C637.394,464.308,588.928,431.357,577.65,424.633z"/>
	<path fill-rule="evenodd" clip-rule="evenodd" fill="#D2D3D4" d="M268.463,389.862c1.735,28.104,9.06,50.028,9.06,50.028
		c2.948-3.237,6.1-6.055,9.042-8.398c-13.029-26.854-14.63-77.018-14.63-77.018l-5.206,4.856
		C266.728,359.33,266.728,361.759,268.463,389.862z"/>
	<path fill-rule="evenodd" clip-rule="evenodd" fill="#EB9961" d="M265.688,364.186c9.937,0,18.04-8.103,18.04-18.04
		s-8.103-18.042-18.04-18.042s-18.042,8.105-18.042,18.042S255.751,364.186,265.688,364.186z"/>
	<path fill-rule="evenodd" clip-rule="evenodd" fill="#373435" d="M387.117,494.632c7.07,0,12.836-17.299,12.836-38.511
		c0-21.212-5.766-38.511-12.836-38.511s-12.838,17.299-12.838,38.511C374.279,477.333,380.047,494.632,387.117,494.632z"/>
	<path fill-rule="evenodd" clip-rule="evenodd" fill="#FFFFFF" d="M413.83,542.511c0,0,5.552,7.633,31.226,7.633
		c25.676,0,35.391-9.021,35.391-9.021S438.81,607.739,413.83,542.511z"/>
	<path fill-rule="evenodd" clip-rule="evenodd" fill="#EB9961" d="M388.411,336.769c0,0,9.113,20.471,16.398,34.697
		c7.288,14.225,13.879,18.04,13.879,18.04s15.615,1.042,26.717,1.042c11.1,0,19.08-1.388,19.08-1.388s18.39-13.529,22.553-22.205
		c4.162-8.675,7.31-31.472,7.31-31.472C461.503,327.852,420.388,326.874,388.411,336.769z"/>
	<path fill-rule="evenodd" clip-rule="evenodd" fill="#D2D3D4" d="M607.082,389.862c-1.737,28.104-9.062,50.028-9.062,50.028
		c-2.948-3.237-6.097-6.055-9.039-8.398c13.029-26.854,14.63-77.018,14.63-77.018l5.207,4.856
		C608.817,359.33,608.817,361.759,607.082,389.862z"/>
	<path fill-rule="evenodd" clip-rule="evenodd" fill="#EB9961" d="M609.859,364.186c9.937,0,18.04-8.103,18.04-18.04
		s-8.104-18.042-18.04-18.042s-18.042,8.105-18.042,18.042S599.922,364.186,609.859,364.186z"/>
	<path fill-rule="evenodd" clip-rule="evenodd" fill="#373435" d="M499.53,494.632c7.07,0,12.835-17.299,12.835-38.511
		c0-21.212-5.766-38.511-12.835-38.511s-12.838,17.299-12.838,38.511C486.692,477.333,492.46,494.632,499.53,494.632z"/>
	<path fill-rule="evenodd" clip-rule="evenodd" fill="#FBBC8E" d="M407.9,352.923c0,0,12.628,25.651,14.711,27.083
		c2.083,1.433,5.338,1.302,15.887,2.083c10.547,0.781,17.71-0.002,11.719,1.302c-5.989,1.302-21.745,2.474-27.474,0.391
		C417.014,381.699,396.049,349.798,407.9,352.923z"/>
	<path fill-rule="evenodd" clip-rule="evenodd" fill="#FBBC8E" d="M457.899,381.699c0,0,4.688-0.912,7.943-4.037
		s14.585-13.804,14.585-13.804s-9.507,17.19-15.885,19.794C458.16,386.256,453.342,385.605,457.899,381.699z"/>
	<path fill-rule="evenodd" clip-rule="evenodd" fill="#1697D4" d="M446.614,306.893l54.732-28.805
		c-12.834-9.007-20.575-20.67-20.575-33.415c0-28.524,38.78-51.648,86.621-51.648s86.621,23.124,86.621,51.648
		s-38.78,51.648-86.621,51.648c-17.491,0-33.769-3.09-47.386-8.409L446.614,306.893z"/>
	<path fill-rule="evenodd" clip-rule="evenodd" fill="#FFFFFF" d="M544.901,250.828c0,0.875-0.21,1.823-0.647,2.838
		c-0.427,1.017-1.107,2.016-2.033,2.993c-0.921,0.987-2.104,1.78-3.536,2.395c-1.44,0.606-3.117,0.914-5.029,0.914
		c-1.444,0-2.763-0.134-3.951-0.411c-1.184-0.274-2.265-0.702-3.231-1.284c-0.966-0.576-1.861-1.343-2.673-2.291
		c-0.722-0.862-1.343-1.821-1.855-2.889c-0.511-1.07-0.895-2.214-1.151-3.424c-0.254-1.214-0.383-2.5-0.383-3.861
		c0-2.208,0.32-4.189,0.964-5.937c0.641-1.752,1.569-3.247,2.765-4.488c1.202-1.243,2.602-2.189,4.213-2.84
		c1.613-0.647,3.333-0.972,5.155-0.972c2.226,0,4.204,0.441,5.943,1.33c1.733,0.881,3.062,1.982,3.99,3.286
		c0.922,1.306,1.39,2.535,1.39,3.696c0,0.641-0.232,1.199-0.68,1.691c-0.447,0.484-0.991,0.729-1.629,0.729
		c-0.71,0-1.247-0.173-1.599-0.507c-0.358-0.337-0.755-0.919-1.19-1.746c-0.73-1.361-1.581-2.378-2.557-3.056
		c-0.985-0.671-2.189-1.011-3.627-1.011c-2.289,0-4.106,0.869-5.463,2.602c-1.355,1.742-2.032,4.209-2.032,7.408
		c0,2.136,0.299,3.915,0.901,5.334c0.594,1.418,1.445,2.476,2.545,3.178c1.101,0.698,2.386,1.048,3.863,1.048
		c1.599,0,2.948-0.395,4.055-1.188c1.106-0.793,1.937-1.958,2.5-3.5c0.236-0.722,0.531-1.31,0.883-1.77
		c0.346-0.456,0.907-0.684,1.683-0.684c0.663,0,1.233,0.228,1.707,0.696C544.665,249.566,544.901,250.142,544.901,250.828z"/>
	<path fill-rule="evenodd" clip-rule="evenodd" fill="#FFFFFF" d="M555.493,234.938v7.873h12.012v-7.873
		c0-1.117,0.256-1.961,0.761-2.525c0.504-0.564,1.169-0.844,1.996-0.844c0.832,0,1.51,0.274,2.026,0.832
		c0.519,0.555,0.781,1.399,0.781,2.537v21.639c0,1.14-0.262,1.981-0.787,2.545c-0.523,0.563-1.203,0.844-2.021,0.844
		c-0.838,0-1.51-0.281-2.008-0.851c-0.499-0.569-0.749-1.414-0.749-2.539v-9.236h-12.012v9.236c0,1.14-0.262,1.981-0.785,2.545
		c-0.525,0.563-1.203,0.844-2.022,0.844c-0.838,0-1.509-0.281-2.008-0.851c-0.499-0.569-0.749-1.414-0.749-2.539v-21.639
		c0-1.125,0.25-1.961,0.743-2.525c0.493-0.564,1.164-0.844,2.014-0.844c0.832,0,1.51,0.274,2.026,0.832
		C555.23,232.957,555.493,233.807,555.493,234.938z"/>
	<path fill-rule="evenodd" clip-rule="evenodd" fill="#FFFFFF" d="M596.632,256.392l-1.312-3.449h-11.167l-1.31,3.518
		c-0.513,1.375-0.948,2.303-1.313,2.783c-0.358,0.478-0.952,0.722-1.778,0.722c-0.696,0-1.316-0.256-1.854-0.767
		c-0.537-0.513-0.808-1.095-0.808-1.74c0-0.378,0.065-0.769,0.187-1.164c0.128-0.405,0.332-0.954,0.621-1.67l7.021-17.832
		c0.206-0.511,0.441-1.125,0.722-1.841c0.283-0.722,0.584-1.316,0.903-1.791s0.736-0.858,1.253-1.151
		c0.519-0.295,1.158-0.441,1.918-0.441c0.781,0,1.426,0.146,1.945,0.441c0.519,0.293,0.934,0.671,1.253,1.131
		c0.319,0.462,0.59,0.96,0.806,1.489c0.218,0.533,0.499,1.243,0.832,2.124l7.176,17.725c0.563,1.349,0.844,2.328,0.844,2.942
		c0,0.633-0.262,1.221-0.793,1.752c-0.531,0.531-1.176,0.793-1.925,0.793c-0.433,0-0.812-0.077-1.125-0.236
		c-0.307-0.154-0.569-0.366-0.787-0.635c-0.212-0.269-0.436-0.684-0.678-1.235C597.015,257.306,596.81,256.813,596.632,256.392
		L596.632,256.392z M585.618,248.761h8.205l-4.136-11.32L585.618,248.761z"/>
	<path fill-rule="evenodd" clip-rule="evenodd" fill="#FFFFFF" d="M621.128,236.633h-6.071v19.944c0,1.151-0.256,2.002-0.773,2.558
		c-0.513,0.557-1.178,0.832-1.99,0.832c-0.824,0-1.503-0.281-2.022-0.844c-0.517-0.564-0.779-1.406-0.779-2.545v-19.944h-6.069
		c-0.954,0-1.658-0.209-2.118-0.625c-0.459-0.423-0.698-0.98-0.698-1.67c0-0.71,0.244-1.271,0.724-1.688
		c0.479-0.415,1.176-0.621,2.092-0.621h17.704c0.964,0,1.674,0.211,2.148,0.641c0.466,0.427,0.702,0.984,0.702,1.668
		c0,0.69-0.242,1.247-0.714,1.67C622.79,236.423,622.08,236.633,621.128,236.633z"/>
</g>
<g>
	<path fill-rule="evenodd" clip-rule="evenodd" fill="#D2D3D4" d="M994.352,626.475c0,0-11.796-198.454,47.184-240.088
		c58.982-41.634,136.002-9.717,151.965,6.244c15.959,15.96,19.426,39.553,20.121,117.269c0.696,77.716,1.388,115.188,1.388,115.188
		S1140.071,641.045,994.352,626.475z"/>
	<path fill-rule="evenodd" clip-rule="evenodd" fill="#373435" d="M1065.824,509.899c10.319,0,18.734-11.845,18.734-26.369
		c0-14.522-8.415-26.367-18.734-26.367s-18.736,11.845-18.736,26.367C1047.088,498.055,1055.505,509.899,1065.824,509.899z"/>
	<path fill-rule="evenodd" clip-rule="evenodd" fill="#373435" d="M1162.967,509.899c10.319,0,18.734-11.845,18.734-26.369
		c0-14.522-8.415-26.367-18.734-26.367c-10.318,0-18.733,11.845-18.733,26.367C1144.233,498.055,1152.648,509.899,1162.967,509.899z
		"/>
	<path fill-rule="evenodd" clip-rule="evenodd" fill="#373435" d="M1005.45,456.113l-17,3.133c0,0-17.694,22.55-15.613,46.143
		c1.904,21.582,11.358,43.166,21.187,47.216C995.204,522.171,998.286,486.899,1005.45,456.113z"/>
	<path fill-rule="evenodd" clip-rule="evenodd" fill="#D2D3D4" d="M977.268,479.374c-22.913,13.951-48.169,39.167-66.195,74.587
		c0,0,13.184,20.471,18.042,20.471c3.898,0,7.125-42.663,46.421-53.253c-1.29-5.084-2.228-10.437-2.7-15.79
		C972.019,496.122,974.253,487.015,977.268,479.374z"/>
	<path fill-rule="evenodd" clip-rule="evenodd" fill="#373435" d="M932.584,608.78c1.738-10.408-3.469-34.349-3.469-34.349
		c-4.858,0-18.042-20.471-18.042-20.471c-26.367,4.51-41.634,42.33-40.938,46.492c0.692,4.163,12.836,17.694,12.836,17.694
		l3.469-14.226c3.471-14.223,15.613-24.634,22.553-12.142c6.938,12.49,1.735,28.101,1.735,28.101l20.121-0.346
		C930.849,619.535,930.849,619.187,932.584,608.78z"/>
	<path fill-rule="evenodd" clip-rule="evenodd" fill="#EB9961" d="M1025.213,646.6c0,0,113.106,4.856,132.538,3.469
		c19.425-1.388,24.979-2.775,24.979-2.775s12.487,77.716-46.494,80.491C1077.256,730.562,1039.092,727.785,1025.213,646.6z"/>
	<path fill-rule="evenodd" clip-rule="evenodd" fill="#EB9961" d="M1174.808,380.67c-64.121-74.414-122.229-1.138-122.229-1.138
		C1096.272,355.894,1146.756,367.295,1174.808,380.67z"/>
	<path fill-rule="evenodd" clip-rule="evenodd" fill="#D2D3D4" d="M1123.518,302.58c3.774,27.903,0.863,50.834,0.863,50.834
		c-3.524-2.602-7.162-4.75-10.504-6.476c7.546-28.877-0.657-78.394-0.657-78.394l6.053,3.752
		C1119.272,272.296,1119.744,274.676,1123.518,302.58z"/>
	<circle fill-rule="evenodd" clip-rule="evenodd" fill="#EB9961" cx="1117.722" cy="259.16" r="18.041"/>
	<path fill-rule="evenodd" clip-rule="evenodd" fill="#373435" d="M1212.927,456.103l16.573,4.917c0,0,15.201,24.302,10.628,47.54
		c-4.183,21.257-15.873,41.716-26.078,44.7C1216.108,522.874,1216.784,487.473,1212.927,456.103z"/>
	<path fill-rule="evenodd" clip-rule="evenodd" fill="#D2D3D4" d="M1238.479,482.22c21.306,16.302,43.742,44.055,57.91,81.189
		c0,0-15.283,18.955-20.112,18.44c-3.874-0.413-2.56-43.176-40.512-57.875c1.827-4.919,3.324-10.142,4.362-15.414
		C1241.927,499.43,1240.669,490.138,1238.479,482.22z"/>
	<path fill-rule="evenodd" clip-rule="evenodd" fill="#373435" d="M1269.185,615.637c-0.622-10.533,7.093-33.787,7.093-33.787
		c4.829,0.515,20.112-18.44,20.112-18.44c25.741,7.281,36.91,46.506,35.775,50.571c-1.132,4.067-14.641,16.233-14.641,16.233
		l-1.94-14.512c-1.941-14.512-12.911-26.151-21.135-14.467c-8.224,11.687-4.708,27.761-4.708,27.761l-19.971-2.48
		C1269.771,626.515,1269.808,626.169,1269.185,615.637z"/>
	<path fill-rule="evenodd" clip-rule="evenodd" fill="#FFFFFF" d="M1072.944,495.67c5.241,0,9.514-3.629,9.514-8.079
		c0-4.45-4.272-8.079-9.514-8.079c-5.241,0-9.515,3.629-9.515,8.079C1063.429,492.041,1067.704,495.67,1072.944,495.67z"/>
	<path fill-rule="evenodd" clip-rule="evenodd" fill="#FFFFFF" d="M1060.656,478.47c2.102,0,3.814-2.649,3.814-5.898
		s-1.713-5.9-3.814-5.9c-2.104,0-3.819,2.651-3.819,5.9S1058.552,478.47,1060.656,478.47z"/>
	<path fill-rule="evenodd" clip-rule="evenodd" fill="#FFFFFF" d="M1158.146,495.67c5.241,0,9.518-3.629,9.518-8.079
		c0-4.45-4.276-8.079-9.518-8.079s-9.514,3.629-9.514,8.079C1148.632,492.041,1152.904,495.67,1158.146,495.67z"/>
	<path fill-rule="evenodd" clip-rule="evenodd" fill="#FFFFFF" d="M1170.434,478.47c2.104,0,3.821-2.649,3.821-5.898
		s-1.718-5.9-3.821-5.9c-2.1,0-3.813,2.651-3.813,5.9S1168.334,478.47,1170.434,478.47z"/>
	<path fill-rule="evenodd" clip-rule="evenodd" fill="#FFFFFF" d="M1078.338,535.367c0,0,5.552,7.634,31.226,7.634
		c25.676,0,35.391-9.023,35.391-9.023S1103.32,600.594,1078.338,535.367z"/>
	<path fill-rule="evenodd" clip-rule="evenodd" fill="#FBBC8E" d="M1126.643,720.79c0,0,15.389-0.055,24.17-5.029
		c8.776-4.975,19.185-17.067,17.932-12.504c-1.257,4.565-10.502,15.082-20.683,19.096
		C1137.886,726.369,1110.489,725.876,1126.643,720.79z"/>
	<path fill-rule="evenodd" clip-rule="evenodd" fill="#FBBC8E" d="M1172.399,699.419c0,0,5.42-8.667,5.045-14.207
		c-0.378-5.54-4.517-3.066-7.214,4.986C1167.532,698.252,1166.479,701.078,1172.399,699.419z"/>
	<path fill-rule="evenodd" clip-rule="evenodd" fill="#1697D4" d="M1152.97,277.895l54.732-28.804
		c-12.83-9.007-20.573-20.67-20.573-33.415c0-28.524,38.782-51.646,86.621-51.646c47.84,0,86.621,23.122,86.621,51.646
		c0,28.523-38.781,51.647-86.621,51.647c-17.492,0-33.769-3.09-47.384-8.408L1152.97,277.895z"/>
	<path fill-rule="evenodd" clip-rule="evenodd" fill="#FFFFFF" d="M1251.257,221.83c0,0.875-0.208,1.823-0.644,2.84
		c-0.431,1.016-1.106,2.014-2.034,2.993c-0.924,0.984-2.104,1.778-3.536,2.393c-1.44,0.606-3.116,0.913-5.029,0.913
		c-1.444,0-2.763-0.134-3.951-0.409c-1.184-0.277-2.266-0.704-3.23-1.286c-0.969-0.576-1.863-1.343-2.673-2.291
		c-0.725-0.863-1.343-1.821-1.855-2.889c-0.513-1.07-0.896-2.213-1.152-3.422c-0.256-1.215-0.382-2.502-0.382-3.864
		c0-2.207,0.317-4.189,0.964-5.937c0.639-1.752,1.566-3.247,2.763-4.488c1.205-1.241,2.604-2.187,4.216-2.84
		c1.611-0.645,3.333-0.973,5.155-0.973c2.226,0,4.203,0.441,5.941,1.331c1.733,0.883,3.063,1.984,3.991,3.288
		c0.92,1.304,1.388,2.533,1.388,3.697c0,0.639-0.228,1.196-0.676,1.689c-0.447,0.484-0.992,0.728-1.632,0.728
		c-0.712,0-1.249-0.173-1.599-0.504c-0.358-0.34-0.757-0.922-1.192-1.746c-0.729-1.363-1.579-2.38-2.556-3.058
		c-0.984-0.671-2.188-1.011-3.629-1.011c-2.287,0-4.105,0.871-5.461,2.604c-1.354,1.739-2.034,4.208-2.034,7.406
		c0,2.136,0.301,3.914,0.903,5.334c0.594,1.42,1.444,2.476,2.543,3.178c1.103,0.698,2.389,1.05,3.865,1.05
		c1.6,0,2.946-0.397,4.053-1.19c1.107-0.792,1.938-1.957,2.503-3.497c0.235-0.724,0.528-1.313,0.883-1.772
		c0.346-0.454,0.907-0.684,1.681-0.684c0.667,0,1.232,0.229,1.709,0.696C1251.021,220.57,1251.257,221.145,1251.257,221.83z"/>
	<path fill-rule="evenodd" clip-rule="evenodd" fill="#FFFFFF" d="M1261.849,205.942v7.874h12.012v-7.874
		c0-1.119,0.256-1.963,0.761-2.527c0.509-0.563,1.172-0.844,1.998-0.844c0.83,0,1.509,0.274,2.026,0.832
		c0.517,0.556,0.781,1.4,0.781,2.539v21.637c0,1.139-0.265,1.983-0.786,2.545c-0.524,0.563-1.204,0.844-2.021,0.844
		c-0.839,0-1.51-0.281-2.011-0.85c-0.496-0.57-0.748-1.414-0.748-2.539v-9.237h-12.012v9.237c0,1.139-0.261,1.983-0.786,2.545
		c-0.524,0.563-1.2,0.844-2.021,0.844c-0.839,0-1.506-0.281-2.007-0.85c-0.5-0.57-0.748-1.414-0.748-2.539v-21.637
		c0-1.127,0.248-1.963,0.74-2.527s1.164-0.844,2.015-0.844c0.834,0,1.509,0.274,2.03,0.832
		C1261.588,203.959,1261.849,204.809,1261.849,205.942z"/>
	<path fill-rule="evenodd" clip-rule="evenodd" fill="#FFFFFF" d="M1302.99,227.395l-1.314-3.449h-11.165l-1.311,3.518
		c-0.513,1.375-0.948,2.303-1.314,2.783c-0.358,0.48-0.952,0.722-1.778,0.722c-0.695,0-1.314-0.256-1.852-0.767
		c-0.537-0.513-0.806-1.095-0.806-1.74c0-0.376,0.062-0.769,0.184-1.164c0.13-0.405,0.334-0.954,0.622-1.67l7.02-17.831
		c0.207-0.513,0.443-1.127,0.725-1.843c0.28-0.722,0.581-1.316,0.903-1.791c0.317-0.474,0.736-0.858,1.253-1.151
		c0.517-0.295,1.155-0.441,1.921-0.441c0.776,0,1.424,0.146,1.94,0.441c0.521,0.293,0.936,0.671,1.253,1.133
		c0.322,0.46,0.591,0.958,0.806,1.489c0.22,0.531,0.501,1.241,0.835,2.124l7.173,17.723c0.566,1.349,0.847,2.328,0.847,2.942
		c0,0.633-0.265,1.221-0.793,1.751c-0.533,0.531-1.177,0.793-1.925,0.793c-0.436,0-0.814-0.075-1.127-0.236
		c-0.306-0.153-0.57-0.364-0.786-0.635c-0.211-0.267-0.435-0.684-0.679-1.233C1303.372,228.308,1303.169,227.815,1302.99,227.395
		L1302.99,227.395z M1291.976,219.765h8.203l-4.135-11.322L1291.976,219.765z"/>
	<path fill-rule="evenodd" clip-rule="evenodd" fill="#FFFFFF" d="M1327.485,207.637h-6.071v19.942c0,1.151-0.256,2.002-0.772,2.559
		c-0.513,0.556-1.181,0.83-1.99,0.83c-0.826,0-1.505-0.281-2.022-0.844c-0.517-0.562-0.781-1.406-0.781-2.545v-19.942h-6.066
		c-0.952,0-1.66-0.211-2.12-0.626c-0.46-0.423-0.695-0.979-0.695-1.67c0-0.71,0.244-1.271,0.724-1.689
		c0.48-0.415,1.176-0.62,2.092-0.62h17.704c0.965,0,1.673,0.211,2.148,0.641c0.464,0.429,0.704,0.985,0.704,1.668
		c0,0.692-0.244,1.247-0.716,1.67C1329.146,207.426,1328.438,207.637,1327.485,207.637z"/>
</g>
<g>
	<path fill-rule="evenodd" clip-rule="evenodd" fill="#D2D3D4" d="M1633.597,329.39h150.244c21.92,0,39.853,17.932,39.853,39.85
		v109.746c0,21.916-17.933,39.848-39.853,39.848h-150.244c-21.92,0-39.852-17.932-39.852-39.848V369.24
		C1593.745,347.322,1611.677,329.39,1633.597,329.39z"/>
	<path fill-rule="evenodd" clip-rule="evenodd" fill="#373435" d="M1593.745,378.597c0,0-65.145,35.994,0,82.751
		C1593.888,428.419,1591.516,397.324,1593.745,378.597z"/>
	<path fill-rule="evenodd" clip-rule="evenodd" fill="#373435" d="M1822.879,378.597c0,0,65.149,35.994,0,82.751
		C1822.736,428.419,1825.113,397.324,1822.879,378.597z"/>
	<path fill-rule="evenodd" clip-rule="evenodd" fill="#EB9961" d="M1570.73,400.038c0,0-13.899-18.06-15.206-31.779
		c-1.306-13.721-2.616-71.206,5.88-79.044c8.492-7.839,26.782-16.984,55.526-16.984c61.381,0,122.668,0,184.049,0
		c28.748,0,47.038,9.146,55.53,16.984c8.491,7.839,7.186,65.324,5.879,79.044c-1.306,13.719-15.209,31.779-15.209,31.779
		s-5.693,30.278,4.919,27.055c10.616-3.223,31.848-25.519,33.806-36.625c1.961-11.104,2.616-88.84-6.531-114.972
		c-9.147-26.129-36.91-25.15-36.91-25.15c-118.082-4.724-148.934-4.724-267.012,0c0,0-27.768-0.979-36.91,25.15
		c-9.147,26.131-8.496,103.868-6.535,114.972c1.961,11.106,23.193,33.403,33.806,36.625
		C1576.428,430.316,1570.73,400.038,1570.73,400.038z"/>
	<path fill-rule="evenodd" clip-rule="evenodd" fill="#373435" d="M1593.753,459.057c0,0,36.882,18.947,47.006,21.234
		c10.127,2.285,12.41,2.938,12.41,2.938s3.593,4.248,1.961,7.514c-1.632,3.265-10.123,11.106-16.983,7.513
		c-6.856-3.595-44.401-22.21-44.401-22.21S1583.927,466.245,1593.753,459.057z"/>
	<path fill-rule="evenodd" clip-rule="evenodd" fill="#EB9961" d="M1667.545,506.744c15.112,0,27.433-6.968,27.433-15.513
		s-12.32-15.515-27.433-15.515s-27.438,6.97-27.438,15.515S1652.433,506.744,1667.545,506.744z"/>
	<path fill-rule="evenodd" clip-rule="evenodd" fill="#373435" d="M1632.584,362.379c0,0-11.435,19.926-11.435,45.075
		c0,25.15,1.307,30.377,3.268,33.97c1.962,3.593,35.604,15.352,56.181,18.945c24.016,4.191,25.635,4.191,49.646,0
		c20.581-3.593,54.224-15.353,56.181-18.945c1.961-3.593,3.268-8.82,3.268-33.97c0-25.148-11.43-45.075-11.43-45.075
		C1725.598,355.641,1685.11,355.66,1632.584,362.379z"/>
	<path fill-rule="evenodd" clip-rule="evenodd" fill="#E6E6E6" d="M1662.471,427.378c8.545,0,15.515-10.492,15.515-23.354
		c0-12.862-6.97-23.354-15.515-23.354s-15.516,10.492-15.516,23.354C1646.955,416.886,1653.926,427.378,1662.471,427.378z"/>
	<path fill-rule="evenodd" clip-rule="evenodd" fill="#E6E6E6" d="M1740.209,427.378c8.545,0,15.516-10.492,15.516-23.354
		c0-12.862-6.971-23.354-15.516-23.354s-15.515,10.492-15.515,23.354C1724.694,416.886,1731.664,427.378,1740.209,427.378z"/>
	<path fill-rule="evenodd" clip-rule="evenodd" fill="#D2D3D4" d="M1601.911,547.902h213.615c17.606,0,32.007,14.404,32.007,32.009
		v48.995c0,17.604-14.4,32.009-32.007,32.009h-213.615c-17.606,0-32.011-14.404-32.011-32.009v-48.995
		C1569.9,562.306,1584.305,547.902,1601.911,547.902z"/>
	<rect x="1679.32" y="514.587" fill-rule="evenodd" clip-rule="evenodd" fill="#373435" width="58.793" height="33.315"/>
	<path fill-rule="evenodd" clip-rule="evenodd" fill="#373435" d="M1633.557,674.959h38.871c8.984,0,16.329,7.349,16.329,16.329
		v29.075c0,8.982-7.345,16.329-16.329,16.329h-38.871c-8.98,0-16.329-7.347-16.329-16.329v-29.075
		C1617.228,682.308,1624.576,674.959,1633.557,674.959z"/>
	<path fill-rule="evenodd" clip-rule="evenodd" fill="#373435" d="M1747.55,674.959h38.871c8.984,0,16.329,7.349,16.329,16.329
		v29.075c0,8.982-7.345,16.329-16.329,16.329h-38.871c-8.984,0-16.333-7.347-16.333-16.329v-29.075
		C1731.217,682.308,1738.565,674.959,1747.55,674.959z"/>
	<path fill-rule="evenodd" clip-rule="evenodd" fill="#EB9961" d="M1617.585,564.709h182.268c12.366,0,22.485,10.12,22.485,22.487
		v34.424c0,12.368-10.119,22.487-22.485,22.487h-182.268c-12.369,0-22.489-10.12-22.489-22.487v-34.424
		C1595.096,574.829,1605.216,564.709,1617.585,564.709z"/>
	<path fill-rule="evenodd" clip-rule="evenodd" fill="#1697D4" d="M1895.324,269.631l54.731-28.805
		c-12.833-9.007-20.572-20.671-20.572-33.415c0-28.523,38.777-51.646,86.62-51.646c47.84,0,86.621,23.122,86.621,51.646
		c0,28.524-38.781,51.648-86.621,51.648c-17.492,0-33.769-3.091-47.387-8.409L1895.324,269.631z"/>
	<path fill-rule="evenodd" clip-rule="evenodd" fill="#FFFFFF" d="M1993.61,213.566c0,0.875-0.211,1.823-0.646,2.84
		c-0.428,1.015-1.107,2.014-2.035,2.993c-0.919,0.985-2.1,1.778-3.535,2.393c-1.437,0.606-3.113,0.914-5.025,0.914
		c-1.444,0-2.763-0.134-3.955-0.409c-1.181-0.277-2.263-0.704-3.227-1.286c-0.969-0.576-1.864-1.343-2.674-2.291
		c-0.725-0.863-1.347-1.821-1.855-2.889c-0.513-1.07-0.896-2.213-1.151-3.422c-0.257-1.215-0.383-2.502-0.383-3.864
		c0-2.208,0.317-4.189,0.965-5.937c0.639-1.751,1.566-3.247,2.763-4.488c1.204-1.241,2.604-2.187,4.216-2.84
		c1.611-0.645,3.332-0.973,5.155-0.973c2.226,0,4.203,0.441,5.94,1.331c1.733,0.883,3.064,1.983,3.992,3.288
		c0.919,1.304,1.387,2.533,1.387,3.697c0,0.639-0.231,1.196-0.679,1.688c-0.448,0.484-0.993,0.729-1.628,0.729
		c-0.712,0-1.249-0.173-1.604-0.504c-0.354-0.34-0.753-0.922-1.188-1.746c-0.729-1.363-1.579-2.38-2.56-3.058
		c-0.985-0.671-2.186-1.011-3.626-1.011c-2.286,0-4.105,0.869-5.46,2.604c-1.355,1.739-2.035,4.207-2.035,7.405
		c0,2.137,0.302,3.915,0.899,5.335c0.599,1.42,1.448,2.476,2.547,3.178c1.104,0.698,2.385,1.05,3.862,1.05
		c1.599,0,2.949-0.397,4.057-1.19c1.106-0.791,1.937-1.957,2.502-3.497c0.236-0.725,0.529-1.313,0.883-1.772
		c0.347-0.454,0.908-0.684,1.681-0.684c0.663,0,1.233,0.23,1.709,0.696C1993.375,212.307,1993.61,212.88,1993.61,213.566z"/>
	<path fill-rule="evenodd" clip-rule="evenodd" fill="#FFFFFF" d="M2004.202,197.678v7.874h12.012v-7.874
		c0-1.119,0.257-1.963,0.761-2.527c0.505-0.563,1.172-0.844,1.998-0.844c0.83,0,1.51,0.275,2.026,0.832
		c0.517,0.556,0.781,1.4,0.781,2.539v21.637c0,1.139-0.265,1.983-0.789,2.545c-0.525,0.563-1.2,0.844-2.019,0.844
		c-0.838,0-1.51-0.281-2.01-0.85c-0.501-0.57-0.749-1.414-0.749-2.539v-9.237h-12.012v9.237c0,1.139-0.261,1.983-0.785,2.545
		c-0.525,0.563-1.204,0.844-2.022,0.844c-0.838,0-1.51-0.281-2.01-0.85c-0.497-0.57-0.745-1.414-0.745-2.539v-21.637
		c0-1.127,0.248-1.963,0.741-2.527c0.492-0.563,1.163-0.844,2.014-0.844c0.834,0,1.51,0.275,2.026,0.832
		C2003.941,195.695,2004.202,196.545,2004.202,197.678z"/>
	<path fill-rule="evenodd" clip-rule="evenodd" fill="#FFFFFF" d="M2045.34,219.13l-1.311-3.448h-11.165l-1.314,3.518
		c-0.509,1.375-0.944,2.303-1.31,2.783c-0.358,0.48-0.953,0.722-1.778,0.722c-0.696,0-1.318-0.256-1.852-0.767
		c-0.541-0.513-0.81-1.094-0.81-1.739c0-0.376,0.064-0.769,0.187-1.164c0.131-0.405,0.334-0.955,0.623-1.67l7.019-17.831
		c0.208-0.513,0.443-1.127,0.725-1.843c0.281-0.722,0.582-1.316,0.903-1.79c0.317-0.474,0.736-0.859,1.253-1.152
		c0.518-0.295,1.156-0.441,1.917-0.441c0.781,0,1.428,0.146,1.944,0.441c0.521,0.293,0.937,0.671,1.254,1.133
		c0.321,0.46,0.59,0.958,0.806,1.489c0.22,0.531,0.5,1.241,0.834,2.124l7.174,17.723c0.562,1.349,0.847,2.327,0.847,2.942
		c0,0.633-0.265,1.221-0.794,1.751c-0.533,0.531-1.18,0.793-1.925,0.793c-0.436,0-0.813-0.075-1.127-0.236
		c-0.305-0.152-0.569-0.364-0.785-0.635c-0.212-0.267-0.436-0.684-0.68-1.233C2045.727,220.043,2045.519,219.551,2045.34,219.13
		L2045.34,219.13z M2034.329,211.501h8.203l-4.138-11.322L2034.329,211.501z"/>
	<path fill-rule="evenodd" clip-rule="evenodd" fill="#FFFFFF" d="M2069.835,199.373h-6.066v19.942c0,1.151-0.257,2.002-0.773,2.559
		c-0.513,0.556-1.18,0.83-1.989,0.83c-0.826,0-1.506-0.281-2.022-0.844c-0.517-0.562-0.781-1.406-0.781-2.545v-19.942h-6.067
		c-0.956,0-1.66-0.211-2.119-0.626c-0.46-0.423-0.696-0.979-0.696-1.67c0-0.71,0.244-1.271,0.725-1.688
		c0.476-0.415,1.176-0.621,2.091-0.621h17.7c0.969,0,1.677,0.211,2.153,0.641c0.463,0.429,0.699,0.985,0.699,1.668
		c0,0.691-0.24,1.247-0.716,1.67C2071.5,199.162,2070.791,199.373,2069.835,199.373z"/>
</g>
<g>
	<path fill-rule="evenodd" clip-rule="evenodd" fill="#D2D3D4" d="M1724.006,1310.561c58.477,0,106.169-53.446,106.169-118.982
		c0-65.527-47.692-118.978-106.169-118.978c-58.472,0-106.164,53.45-106.164,118.978
		C1617.842,1257.114,1665.534,1310.561,1724.006,1310.561z"/>
	<path fill-rule="evenodd" clip-rule="evenodd" fill="#EB9961" d="M1620.959,1162.847c0,0-20.215-15.201-30.587-0.557
		c-10.372,14.644-21.965,53.694-9.762,74.438c10.282,17.484,33.134,26.733,56.132,22.636c-11.914-19.234-18.9-42.595-18.9-67.782
		C1617.842,1181.675,1618.92,1172.047,1620.959,1162.847z"/>
	<path fill-rule="evenodd" clip-rule="evenodd" fill="#373435" d="M1679.149,1183.644c3.865,0,7.015-5.48,7.015-12.203
		c0-6.722-3.149-12.202-7.015-12.202s-7.015,5.48-7.015,12.202C1672.135,1178.163,1675.284,1183.644,1679.149,1183.644z"/>
	<path fill-rule="evenodd" clip-rule="evenodd" fill="#373435" d="M1759.387,1183.644c3.861,0,7.015-5.48,7.015-12.203
		c0-6.722-3.153-12.202-7.015-12.202c-3.866,0-7.016,5.48-7.016,12.202C1752.371,1178.163,1755.521,1183.644,1759.387,1183.644z"/>
	<path fill-rule="evenodd" clip-rule="evenodd" fill="#D2D3D4" d="M1580.057,1126.89c1.526,24.711,7.968,43.989,7.968,43.989
		c2.592-2.848,5.358-5.326,7.946-7.385c-11.454-23.612-12.862-67.725-12.862-67.725l-4.577,4.272
		C1578.531,1100.042,1578.531,1102.178,1580.057,1126.89z"/>
	<path fill-rule="evenodd" clip-rule="evenodd" fill="#EB9961" d="M1577.615,1104.311c8.736,0,15.861-7.125,15.861-15.865
		c0-8.736-7.125-15.861-15.861-15.861s-15.865,7.125-15.865,15.861C1561.75,1097.186,1568.879,1104.311,1577.615,1104.311z"/>
	<path fill-rule="evenodd" clip-rule="evenodd" fill="#EB9961" d="M1827.225,1162.847c0,0,20.215-15.201,30.583-0.557
		c10.376,14.644,21.969,53.694,9.762,74.438c-10.283,17.484-33.13,26.733-56.132,22.636c11.918-19.234,18.904-42.595,18.904-67.782
		C1830.342,1181.675,1829.26,1172.047,1827.225,1162.847z"/>
	<path fill-rule="evenodd" clip-rule="evenodd" fill="#D2D3D4" d="M1868.126,1126.89c-1.525,24.711-7.967,43.989-7.967,43.989
		c-2.592-2.848-5.363-5.326-7.95-7.385c11.458-23.612,12.865-67.725,12.865-67.725l4.578,4.272
		C1869.652,1100.042,1869.652,1102.178,1868.126,1126.89z"/>
	<path fill-rule="evenodd" clip-rule="evenodd" fill="#EB9961" d="M1870.567,1104.311c8.736,0,15.865-7.125,15.865-15.865
		c0-8.736-7.129-15.861-15.865-15.861c-8.74,0-15.864,7.125-15.864,15.861C1854.703,1097.186,1861.827,1104.311,1870.567,1104.311z"
		/>
	<path fill-rule="evenodd" clip-rule="evenodd" fill="#EB9961" d="M1645.715,1436.248c0,0,38.753,8.219,78.486,9.009
		c39.734-0.79,78.491-9.009,78.491-9.009c-4.077,49.313-33.109,83.166-78.491,86.304
		C1678.82,1519.414,1649.787,1485.561,1645.715,1436.248z"/>
	<path fill-rule="evenodd" clip-rule="evenodd" fill="#D2D3D4" d="M1632.482,1279.44c0,0-63.461,75.049-26.237,117.146
		c45.402,51.359,190.511,51.359,235.917,0c37.219-42.098-26.237-117.146-26.237-117.146c-10.376-14.034-17.696,46.37-86.646,54.911
		c-1.721,0.216-3.409,0.366-5.078,0.484c-1.668-0.118-3.353-0.269-5.078-0.484
		C1650.178,1325.811,1642.854,1265.406,1632.482,1279.44z"/>
	<path fill-rule="evenodd" clip-rule="evenodd" fill="#FFFFFF" d="M1696.74,1229.136c0,0,4.878,6.714,27.457,6.714
		c22.575,0,31.116-7.935,31.116-7.935S1718.704,1286.492,1696.74,1229.136z"/>
	<polygon fill-rule="evenodd" clip-rule="evenodd" fill="#A8AAAD" points="1684.126,1081.516 1694.575,1121.018 1713.439,1134.58 
		1733.394,1135.166 1749.222,1123.438 1763.342,1081.174 1765.648,1081.947 1751.407,1124.574 1750.979,1125.168 1734.504,1137.371 
		1733.747,1137.611 1713,1137.001 1712.324,1136.769 1692.797,1122.734 1692.329,1122.06 1681.77,1082.139 	"/>
	<path fill-rule="evenodd" clip-rule="evenodd" fill="#EB9961" d="M1694.62,1077.219l6.571,24.833l14.579,10.482l15.426,0.455
		l12.231-9.065l9.025-27.002c-9.054-2.815-18.596-4.321-28.447-4.321C1713.813,1072.601,1703.954,1074.212,1694.62,1077.219z"/>
	<path fill-rule="evenodd" clip-rule="evenodd" fill="#FBBC8E" d="M1839.411,1249.11c0,0,13.286-6.25,17.709-14.063
		c4.427-7.813,5.732-22.396,7.552-17.969c1.823,4.427,0.521,17.188-5.729,24.739
		C1852.697,1249.37,1828.678,1259.99,1839.411,1249.11z"/>
	<path fill-rule="evenodd" clip-rule="evenodd" fill="#FBBC8E" d="M1867.801,1210.308c0,0,1.298-9.375-1.566-14.322
		c-2.86-4.948-5.729-1.563-4.688,6.51C1862.589,1210.568,1862.853,1213.433,1867.801,1210.308z"/>
	<path fill-rule="evenodd" clip-rule="evenodd" fill="#FBBC8E" d="M1609.887,1249.11c0,0-13.281-6.25-17.708-14.063
		c-4.428-7.813-5.729-22.396-7.553-17.969c-1.822,4.427-0.521,17.188,5.729,24.739S1620.625,1259.99,1609.887,1249.11z"/>
	<path fill-rule="evenodd" clip-rule="evenodd" fill="#FBBC8E" d="M1581.501,1210.308c0,0-1.302-9.375,1.563-14.322
		c2.865-4.948,5.729-1.563,4.688,6.51C1586.71,1210.568,1586.449,1213.433,1581.501,1210.308z"/>
	<path fill-rule="evenodd" clip-rule="evenodd" fill="#FBBC8E" d="M1737.747,1511.996c0,0,15.133-2.393,23.23-8.703
		c8.097-6.312,17.028-19.987,16.288-15.23s-8.704,16.679-18.282,22.241C1749.409,1515.866,1722.407,1519.536,1737.747,1511.996z"/>
	<path fill-rule="evenodd" clip-rule="evenodd" fill="#FBBC8E" d="M1783.649,1482.398c0,0,6.157-8.663,6.25-14.205
		c0.094-5.542-4.256-3.067-7.638,4.984C1778.885,1481.23,1777.587,1484.059,1783.649,1482.398z"/>
	<path fill-rule="evenodd" clip-rule="evenodd" fill="#1697D4" d="M1782.714,1052.605l54.736-28.809
		c-12.834-9.005-20.577-20.671-20.577-33.41c0-28.524,38.782-51.648,86.621-51.648c47.84,0,86.621,23.124,86.621,51.648
		c0,28.523-38.781,51.644-86.621,51.644c-17.488,0-33.769-3.089-47.384-8.406L1782.714,1052.605z"/>
	<path fill-rule="evenodd" clip-rule="evenodd" fill="#FFFFFF" d="M1881.005,996.539c0,0.874-0.212,1.822-0.647,2.84
		c-0.431,1.018-1.106,2.014-2.034,2.99c-0.92,0.985-2.104,1.778-3.536,2.393c-1.44,0.61-3.116,0.916-5.029,0.916
		c-1.444,0-2.763-0.135-3.951-0.411c-1.184-0.272-2.262-0.7-3.23-1.286c-0.964-0.573-1.859-1.343-2.673-2.286
		c-0.721-0.867-1.343-1.823-1.855-2.894c-0.509-1.065-0.896-2.213-1.152-3.422c-0.252-1.213-0.382-2.498-0.382-3.861
		c0-2.21,0.321-4.191,0.964-5.937c0.644-1.75,1.571-3.247,2.768-4.488c1.2-1.241,2.6-2.189,4.211-2.84
		c1.615-0.647,3.333-0.973,5.155-0.973c2.226,0,4.203,0.439,5.945,1.33c1.729,0.883,3.06,1.981,3.987,3.288
		c0.924,1.302,1.392,2.531,1.392,3.694c0,0.644-0.231,1.196-0.68,1.688c-0.447,0.488-0.992,0.729-1.632,0.729
		c-0.708,0-1.245-0.171-1.599-0.504c-0.358-0.338-0.757-0.92-1.188-1.746c-0.732-1.359-1.583-2.376-2.56-3.056
		c-0.984-0.672-2.188-1.009-3.625-1.009c-2.291,0-4.105,0.866-5.465,2.6c-1.354,1.741-2.03,4.207-2.03,7.405
		c0,2.137,0.297,3.915,0.899,5.335c0.594,1.42,1.444,2.478,2.547,3.182c1.099,0.696,2.385,1.046,3.861,1.046
		c1.6,0,2.95-0.395,4.057-1.188c1.107-0.793,1.938-1.957,2.499-3.499c0.235-0.72,0.533-1.311,0.883-1.77
		c0.346-0.456,0.907-0.684,1.681-0.684c0.667,0,1.236,0.228,1.709,0.695C1880.769,995.277,1881.005,995.855,1881.005,996.539z"/>
	<path fill-rule="evenodd" clip-rule="evenodd" fill="#FFFFFF" d="M1891.597,980.649v7.873h12.012v-7.873
		c0-1.119,0.256-1.962,0.761-2.527c0.505-0.562,1.168-0.842,1.994-0.842c0.834,0,1.51,0.272,2.026,0.83
		c0.521,0.558,0.781,1.399,0.781,2.539v21.639c0,1.14-0.261,1.981-0.786,2.543c-0.524,0.565-1.204,0.847-2.021,0.847
		c-0.839,0-1.51-0.281-2.006-0.851c-0.501-0.569-0.749-1.412-0.749-2.539v-9.236h-12.012v9.236c0,1.14-0.265,1.981-0.79,2.543
		c-0.521,0.565-1.2,0.847-2.018,0.847c-0.838,0-1.51-0.281-2.011-0.851c-0.496-0.569-0.748-1.412-0.748-2.539v-21.639
		c0-1.123,0.252-1.962,0.744-2.527c0.492-0.562,1.164-0.842,2.015-0.842c0.83,0,1.51,0.272,2.026,0.83
		S1891.597,979.518,1891.597,980.649z"/>
	<path fill-rule="evenodd" clip-rule="evenodd" fill="#FFFFFF" d="M1932.734,1002.101l-1.311-3.446h-11.169l-1.311,3.52
		c-0.513,1.376-0.948,2.3-1.311,2.779c-0.357,0.48-0.952,0.725-1.778,0.725c-0.695,0-1.318-0.257-1.855-0.77
		c-0.537-0.508-0.805-1.09-0.805-1.737c0-0.378,0.064-0.769,0.183-1.163c0.13-0.403,0.334-0.952,0.622-1.673l7.023-17.83
		c0.203-0.509,0.439-1.123,0.721-1.844c0.284-0.72,0.586-1.314,0.903-1.79c0.321-0.472,0.736-0.854,1.253-1.151
		c0.521-0.293,1.159-0.439,1.921-0.439c0.776,0,1.424,0.146,1.944,0.439c0.517,0.297,0.932,0.675,1.254,1.135
		c0.317,0.46,0.586,0.956,0.806,1.489c0.215,0.529,0.496,1.241,0.83,2.124l7.178,17.721c0.562,1.351,0.842,2.327,0.842,2.942
		c0,0.635-0.261,1.225-0.793,1.753c-0.529,0.533-1.177,0.794-1.925,0.794c-0.436,0-0.81-0.077-1.123-0.236
		c-0.31-0.154-0.57-0.366-0.79-0.635c-0.211-0.269-0.435-0.684-0.675-1.232C1933.116,1003.017,1932.913,1002.524,1932.734,1002.101
		L1932.734,1002.101z M1921.72,994.472h8.207l-4.139-11.32L1921.72,994.472z"/>
	<path fill-rule="evenodd" clip-rule="evenodd" fill="#FFFFFF" d="M1957.229,982.346h-6.071v19.942c0,1.151-0.256,2.002-0.772,2.56
		c-0.513,0.554-1.176,0.83-1.99,0.83c-0.826,0-1.501-0.281-2.022-0.847c-0.517-0.562-0.776-1.403-0.776-2.543v-19.942h-6.071
		c-0.952,0-1.656-0.211-2.116-0.626c-0.46-0.424-0.699-0.981-0.699-1.673c0-0.708,0.244-1.27,0.724-1.685
		c0.48-0.419,1.176-0.622,2.092-0.622h17.704c0.965,0,1.677,0.211,2.148,0.639c0.468,0.431,0.704,0.984,0.704,1.668
		c0,0.691-0.244,1.249-0.716,1.673C1958.894,982.135,1958.182,982.346,1957.229,982.346z"/>
</g>
<g>
	<path fill-rule="evenodd" clip-rule="evenodd" fill="#373435" d="M1106.345,1082.488c3.774,27.905,0.86,50.834,0.86,50.834
		c-3.52-2.6-7.159-4.748-10.504-6.478c7.548-28.878-0.655-78.39-0.655-78.39l6.053,3.748
		C1102.099,1052.203,1102.571,1054.587,1106.345,1082.488z"/>
	<path fill-rule="evenodd" clip-rule="evenodd" fill="#D2D3D4" d="M995.607,1126.845h220.631c6.454,0,11.735,5.281,11.735,11.734
		v151.392c0,6.454-5.281,11.735-11.735,11.735H995.607c-6.456,0-11.735-5.281-11.735-11.735v-151.392
		C983.872,1132.126,989.151,1126.845,995.607,1126.845z"/>
	<path fill-rule="evenodd" clip-rule="evenodd" fill="#373435" d="M1056.634,1248.309c0,0-42.836-62.785-35.793-72.758
		c7.042-9.978,113.247-12.325,142.586-5.872c29.342,6.458,34.619,10.563,26.994,25.822c-7.63,15.255-29.338,52.222-40.486,54.569
		C1138.781,1252.418,1080.692,1253.004,1056.634,1248.309z"/>
	<path fill-rule="evenodd" clip-rule="evenodd" fill="#D2D3D4" d="M1003.704,1321.132h204.438c29.557,0,53.743,24.186,53.743,53.747
		v82.259c0,29.562-24.187,53.748-53.743,53.748h-204.438c-29.559,0-53.745-24.187-53.745-53.748v-82.259
		C949.959,1345.317,974.145,1321.132,1003.704,1321.132z"/>
	<path fill-rule="evenodd" clip-rule="evenodd" fill="#D2D3D4" d="M1072.257,1214.268c3.823,0,6.94-6.934,6.94-15.438
		c0-8.504-3.117-15.438-6.94-15.438c-3.821,0-6.939,6.934-6.939,15.438C1065.317,1207.334,1068.436,1214.268,1072.257,1214.268z"/>
	<path fill-rule="evenodd" clip-rule="evenodd" fill="#D2D3D4" d="M1143.554,1214.268c3.821,0,6.938-6.934,6.938-15.438
		c0-8.504-3.117-15.438-6.938-15.438c-3.824,0-6.939,6.934-6.939,15.438C1136.614,1207.334,1139.729,1214.268,1143.554,1214.268z"/>
	<circle fill-rule="evenodd" clip-rule="evenodd" fill="#EB9961" cx="1100.55" cy="1039.07" r="18.04"/>
	<path fill-rule="evenodd" clip-rule="evenodd" fill="#EB9961" d="M1283.426,1365.012h13.042c15.308,0,27.827,9.493,27.827,21.098
		v70.911c0,11.604-12.52,21.098-27.827,21.098h-13.042c-3.178,0-6.237-0.415-9.09-1.168v-110.774
		C1277.188,1365.423,1280.248,1365.012,1283.426,1365.012z"/>
	<path fill-rule="evenodd" clip-rule="evenodd" fill="#EB9961" d="M929.398,1365.012h-13.041c-15.306,0-27.828,9.493-27.828,21.098
		v70.911c0,11.604,12.522,21.098,27.828,21.098h13.041c3.18,0,6.238-0.415,9.09-1.168v-110.774
		C935.636,1365.423,932.578,1365.012,929.398,1365.012z"/>
	<path fill-rule="evenodd" clip-rule="evenodd" fill="#EB9961" d="M1011.641,1523.288h189.543c8.097,0,14.726-6.624,14.726-14.722
		v-70.228c0-8.101-6.629-14.722-14.726-14.722h-189.543c-8.099,0-14.724,6.621-14.724,14.722v70.228
		C996.917,1516.664,1003.542,1523.288,1011.641,1523.288z"/>
	<path fill-rule="evenodd" clip-rule="evenodd" fill="#FBC195" d="M1020.147,1430.938h134.373c1.722,0,3.13,1.408,3.13,3.125l0,0
		c0,1.722-1.408,3.125-3.13,3.125h-134.373c-1.719,0-3.125-1.403-3.125-3.125l0,0
		C1017.022,1432.346,1018.428,1430.938,1020.147,1430.938z"/>
	<path fill-rule="evenodd" clip-rule="evenodd" fill="#FBC195" d="M1165.462,1430.938h23.433c1.722,0,3.125,1.408,3.125,3.125l0,0
		c0,1.722-1.403,3.125-3.125,3.125h-23.433c-1.722,0-3.125-1.403-3.125-3.125l0,0
		C1162.337,1432.346,1163.74,1430.938,1165.462,1430.938z"/>
	<path fill-rule="evenodd" clip-rule="evenodd" fill="#FBC195" d="M928.479,1413.474v-36.979c0-1.721,1.406-3.125,3.125-3.125l0,0
		c1.721,0,3.125,1.404,3.125,3.125v36.979c0,1.721-1.404,3.125-3.125,3.125l0,0C929.884,1416.599,928.479,1415.194,928.479,1413.474
		z"/>
	<path fill-rule="evenodd" clip-rule="evenodd" fill="#FBC195" d="M928.479,1435.869v-11.458c0-1.722,1.406-3.125,3.125-3.125l0,0
		c1.721,0,3.125,1.403,3.125,3.125v11.458c0,1.722-1.404,3.125-3.125,3.125l0,0C929.884,1438.994,928.479,1437.591,928.479,1435.869
		z"/>
	<path fill-rule="evenodd" clip-rule="evenodd" fill="#FBC195" d="M1280.565,1413.474v-36.979c0-1.721,1.404-3.125,3.125-3.125l0,0
		c1.718,0,3.125,1.404,3.125,3.125v36.979c0,1.721-1.407,3.125-3.125,3.125l0,0
		C1281.97,1416.599,1280.565,1415.194,1280.565,1413.474z"/>
	<path fill-rule="evenodd" clip-rule="evenodd" fill="#FBC195" d="M1280.565,1435.869v-11.458c0-1.722,1.404-3.125,3.125-3.125l0,0
		c1.718,0,3.125,1.403,3.125,3.125v11.458c0,1.722-1.407,3.125-3.125,3.125l0,0
		C1281.97,1438.994,1280.565,1437.591,1280.565,1435.869z"/>
	<path fill-rule="evenodd" clip-rule="evenodd" fill="#1697D4" d="M1136.883,1051.869l54.734-28.809
		c-12.834-9.005-20.573-20.671-20.573-33.411c0-28.523,38.778-51.647,86.617-51.647c47.844,0,86.621,23.124,86.621,51.647
		c0,28.524-38.777,51.648-86.621,51.648c-17.488,0-33.769-3.093-47.384-8.411L1136.883,1051.869z"/>
	<path fill-rule="evenodd" clip-rule="evenodd" fill="#FFFFFF" d="M1235.172,995.802c0,0.875-0.212,1.823-0.647,2.841
		c-0.427,1.017-1.106,2.014-2.034,2.99c-0.92,0.985-2.104,1.782-3.536,2.396c-1.44,0.606-3.116,0.912-5.025,0.912
		c-1.444,0-2.763-0.135-3.955-0.411c-1.184-0.272-2.262-0.7-3.23-1.282c-0.964-0.577-1.859-1.343-2.673-2.29
		c-0.721-0.863-1.343-1.823-1.855-2.894c-0.509-1.066-0.896-2.209-1.152-3.422c-0.252-1.213-0.382-2.498-0.382-3.861
		c0-2.206,0.321-4.188,0.968-5.937c0.64-1.75,1.567-3.247,2.764-4.488c1.2-1.241,2.604-2.189,4.211-2.841
		c1.615-0.646,3.333-0.972,5.155-0.972c2.226,0,4.203,0.443,5.945,1.33c1.733,0.883,3.06,1.981,3.991,3.288
		c0.92,1.306,1.388,2.53,1.388,3.694c0,0.643-0.231,1.196-0.68,1.692c-0.447,0.484-0.992,0.729-1.632,0.729
		c-0.708,0-1.245-0.175-1.599-0.509c-0.358-0.337-0.753-0.919-1.188-1.745c-0.732-1.359-1.578-2.376-2.56-3.056
		c-0.984-0.672-2.185-1.01-3.625-1.01c-2.291,0-4.105,0.867-5.461,2.601c-1.358,1.741-2.034,4.211-2.034,7.409
		c0,2.133,0.297,3.915,0.899,5.335c0.598,1.416,1.448,2.474,2.547,3.178c1.099,0.696,2.385,1.046,3.861,1.046
		c1.6,0,2.95-0.395,4.057-1.188c1.107-0.793,1.938-1.957,2.503-3.499c0.236-0.721,0.529-1.311,0.879-1.771
		c0.346-0.451,0.911-0.684,1.685-0.684c0.663,0,1.232,0.232,1.705,0.696C1234.936,994.541,1235.172,995.118,1235.172,995.802z"/>
	<path fill-rule="evenodd" clip-rule="evenodd" fill="#FFFFFF" d="M1245.764,979.913v7.873h12.012v-7.873
		c0-1.119,0.256-1.962,0.761-2.527c0.505-0.562,1.172-0.842,1.994-0.842c0.834,0,1.509,0.276,2.03,0.834
		c0.517,0.553,0.777,1.399,0.777,2.535v21.639c0,1.14-0.261,1.981-0.786,2.547c-0.524,0.562-1.2,0.843-2.021,0.843
		c-0.839,0-1.51-0.281-2.007-0.851c-0.5-0.569-0.748-1.412-0.748-2.539v-9.236h-12.012v9.236c0,1.14-0.265,1.981-0.785,2.547
		c-0.525,0.562-1.205,0.843-2.022,0.843c-0.839,0-1.51-0.281-2.011-0.851c-0.496-0.569-0.744-1.412-0.744-2.539v-21.639
		c0-1.123,0.248-1.962,0.74-2.527c0.492-0.562,1.164-0.842,2.015-0.842c0.83,0,1.51,0.276,2.026,0.834
		C1245.499,977.931,1245.764,978.781,1245.764,979.913z"/>
	<path fill-rule="evenodd" clip-rule="evenodd" fill="#FFFFFF" d="M1286.901,1001.364l-1.311-3.446h-11.165l-1.314,3.52
		c-0.513,1.376-0.944,2.304-1.311,2.779c-0.357,0.48-0.952,0.725-1.778,0.725c-0.695,0-1.318-0.257-1.855-0.77
		c-0.537-0.509-0.806-1.09-0.806-1.737c0-0.378,0.065-0.769,0.188-1.164c0.126-0.402,0.33-0.952,0.618-1.668l7.023-17.834
		c0.203-0.509,0.443-1.123,0.725-1.84c0.28-0.724,0.582-1.318,0.899-1.79c0.321-0.477,0.736-0.858,1.253-1.151
		c0.521-0.297,1.159-0.443,1.921-0.443c0.781,0,1.424,0.146,1.944,0.443c0.517,0.293,0.932,0.671,1.254,1.131
		c0.317,0.46,0.59,0.96,0.806,1.489c0.215,0.529,0.5,1.241,0.83,2.124l7.178,17.725c0.562,1.347,0.842,2.327,0.842,2.942
		c0,0.63-0.261,1.221-0.793,1.749c-0.529,0.533-1.177,0.794-1.925,0.794c-0.432,0-0.81-0.077-1.123-0.236
		c-0.31-0.154-0.57-0.366-0.785-0.635c-0.212-0.269-0.439-0.684-0.68-1.232C1287.288,1002.28,1287.08,1001.788,1286.901,1001.364
		L1286.901,1001.364z M1275.887,993.735h8.207l-4.139-11.32L1275.887,993.735z"/>
	<path fill-rule="evenodd" clip-rule="evenodd" fill="#FFFFFF" d="M1311.396,981.609h-6.071v19.942c0,1.151-0.256,2.002-0.772,2.56
		c-0.509,0.553-1.176,0.83-1.99,0.83c-0.821,0-1.501-0.281-2.018-0.843c-0.521-0.565-0.781-1.407-0.781-2.547v-19.942h-6.071
		c-0.952,0-1.656-0.212-2.116-0.627c-0.46-0.423-0.695-0.98-0.695-1.668c0-0.712,0.24-1.273,0.72-1.688
		c0.48-0.415,1.176-0.623,2.092-0.623h17.704c0.969,0,1.677,0.212,2.148,0.644c0.468,0.427,0.704,0.984,0.704,1.668
		c0,0.688-0.244,1.245-0.716,1.668C1313.061,981.397,1312.349,981.609,1311.396,981.609z"/>
</g>
<g>
	<path fill-rule="evenodd" clip-rule="evenodd" fill="#D2D3D4" d="M400.569,1270.432l175.558,3.471
		c0,0,5.396-107.682-31.226-132.535C449.935,1076.922,378.615,1188.055,400.569,1270.432z"/>
	<path fill-rule="evenodd" clip-rule="evenodd" fill="#373435" d="M451.916,1206.593c3.058,0,5.552-4.598,5.552-10.233
		s-2.494-10.237-5.552-10.237c-3.058,0-5.552,4.602-5.552,10.237S448.858,1206.593,451.916,1206.593z"/>
	<path fill-rule="evenodd" clip-rule="evenodd" fill="#373435" d="M515.757,1206.593c3.058,0,5.55-4.598,5.55-10.233
		s-2.492-10.237-5.55-10.237c-3.058,0-5.552,4.602-5.552,10.237S512.699,1206.593,515.757,1206.593z"/>
	<path fill-rule="evenodd" clip-rule="evenodd" fill="#D2D3D4" d="M419.228,1163.295c0,0-16.929-8.395-26.296-25.049
		c-9.369-16.654-11.102-37.472-12.144-40.938c-1.042-3.471-5.205-2.43-5.205,1.733c0,4.162,9.367,49.613,17.348,62.105
		c7.979,12.487,15.768,21.231,15.768,21.231L419.228,1163.295z"/>
	<path fill-rule="evenodd" clip-rule="evenodd" fill="#EB9961" d="M373.236,1054.604c15.281-4.74,30.66,1.058,34.351,12.951
		c3.692,11.898-5.703,25.383-20.984,30.123c-15.281,4.744-30.66-1.054-34.351-12.951
		C348.562,1072.832,357.955,1059.344,373.236,1054.604z"/>
	<path fill-rule="evenodd" clip-rule="evenodd" fill="#D2D3D4" d="M560.508,1163.295c0,0,16.929-8.395,26.296-25.049
		c9.367-16.654,11.103-37.472,12.144-40.938c1.042-3.471,5.207-2.43,5.207,1.733c0,4.162-9.371,49.613-17.351,62.105
		c-7.979,12.487-15.767,21.231-15.767,21.231L560.508,1163.295z"/>
	<path fill-rule="evenodd" clip-rule="evenodd" fill="#EB9961" d="M606.5,1054.604c-15.281-4.74-30.662,1.058-34.353,12.951
		c-3.691,11.898,5.705,25.383,20.986,30.123c15.281,4.744,30.66-1.054,34.351-12.951
		C631.174,1072.832,621.781,1059.344,606.5,1054.604z"/>
	<path fill-rule="evenodd" clip-rule="evenodd" fill="#EB9961" d="M325.58,1286.468c0,0-55.451,50.492,7.513,87.313
		C326.906,1347.824,324.074,1318.649,325.58,1286.468z"/>
	<path fill-rule="evenodd" clip-rule="evenodd" fill="#BDBEC0" d="M310.837,1310.381c-22.915,13.949-48.169,39.169-66.194,74.59
		c0,0,13.184,20.467,18.042,20.467c3.898,0,7.125-42.659,46.421-53.251c-1.292-5.082-2.228-10.438-2.7-15.788
		C305.586,1327.129,307.822,1318.022,310.837,1310.381z"/>
	<path fill-rule="evenodd" clip-rule="evenodd" fill="#EB9961" d="M266.154,1439.788c1.735-10.409-3.469-34.351-3.469-34.351
		c-4.858,0-18.042-20.467-18.042-20.467c-26.369,4.508-41.634,42.325-40.94,46.492c0.694,4.162,12.838,17.691,12.838,17.691
		l3.469-14.225c3.471-14.226,15.613-24.634,22.55-12.143c6.938,12.492,1.737,28.105,1.737,28.105l20.122-0.347
		C264.418,1450.546,264.418,1450.196,266.154,1439.788z"/>
	<path fill-rule="evenodd" clip-rule="evenodd" fill="#EB9961" d="M651.358,1286.468c0,0,55.451,50.492-7.513,87.313
		C650.034,1347.824,652.866,1318.649,651.358,1286.468z"/>
	<path fill-rule="evenodd" clip-rule="evenodd" fill="#BDBEC0" d="M666.103,1310.381c22.911,13.949,48.167,39.169,66.195,74.59
		c0,0-13.186,20.467-18.042,20.467c-3.898,0-7.125-42.659-46.421-53.251c1.29-5.082,2.228-10.438,2.7-15.788
		C671.352,1327.129,669.118,1318.022,666.103,1310.381z"/>
	<path fill-rule="evenodd" clip-rule="evenodd" fill="#EB9961" d="M710.785,1439.788c-1.736-10.409,3.471-34.351,3.471-34.351
		c4.856,0,18.042-20.467,18.042-20.467c26.367,4.508,41.632,42.325,40.938,46.492c-0.694,4.162-12.836,17.691-12.836,17.691
		l-3.471-14.225c-3.469-14.226-15.613-24.634-22.551-12.143c-6.938,12.492-1.735,28.105-1.735,28.105l-20.123-0.347
		C712.52,1450.546,712.52,1450.196,710.785,1439.788z"/>
	<path fill-rule="evenodd" clip-rule="evenodd" fill="#D2D3D4" d="M650.966,1279.453l-162.496,0.752l-162.498-0.752
		c-10.132,154.711,78.898,242.081,162.498,239.286C572.07,1521.534,661.098,1434.164,650.966,1279.453z"/>
	<path fill-rule="evenodd" clip-rule="evenodd" fill="#EB9961" d="M561.446,1349.533c10.411,18.042,47.555,103.06,47.555,103.06
		c-31.724,44.491-76.866,67.619-120.53,66.158c-43.665,1.461-88.806-21.667-120.532-66.158c0,0,37.146-85.018,47.555-103.06
		c10.408-18.042,12.492-21.513,17.35-22.9c2.779-0.793,30.351-1.131,55.627-1.018c25.276-0.113,52.848,0.225,55.627,1.018
		C548.956,1328.021,551.037,1331.491,561.446,1349.533z"/>
	<path fill-rule="evenodd" clip-rule="evenodd" fill="#FFFFFF" d="M453.759,1226.751c0,0,5.55,7.634,31.224,7.634
		c25.675,0,35.39-9.025,35.39-9.025S478.739,1291.978,453.759,1226.751z"/>
	<path fill-rule="evenodd" clip-rule="evenodd" fill="#FBC195" d="M430.039,1351.909c0,0,1.044-9.375,5.21-9.896
		c4.165-0.521,97.915-2.083,102.081,0c4.167,2.083,9.375,8.854,9.375,8.854L430.039,1351.909z"/>
	<path fill-rule="evenodd" clip-rule="evenodd" fill="#1697D4" d="M427.512,1056.341l54.734-28.805
		c-12.833-9.005-20.575-20.67-20.575-33.414c0-28.524,38.779-51.648,86.621-51.648c47.839,0,86.621,23.124,86.621,51.648
		c0,28.523-38.782,51.647-86.621,51.647c-17.493,0-33.771-3.088-47.385-8.406L427.512,1056.341z"/>
	<path fill-rule="evenodd" clip-rule="evenodd" fill="#FFFFFF" d="M525.799,1000.278c0,0.875-0.209,1.818-0.645,2.836
		c-0.429,1.018-1.107,2.019-2.035,2.995c-0.919,0.984-2.104,1.777-3.536,2.393c-1.44,0.605-3.115,0.915-5.027,0.915
		c-1.445,0-2.763-0.134-3.953-0.411c-1.182-0.276-2.265-0.704-3.229-1.285c-0.967-0.574-1.862-1.343-2.674-2.291
		c-0.722-0.863-1.345-1.823-1.855-2.89c-0.513-1.069-0.895-2.213-1.151-3.422c-0.256-1.217-0.382-2.502-0.382-3.861
		c0-2.209,0.317-4.191,0.964-5.937c0.641-1.754,1.566-3.247,2.763-4.488c1.205-1.245,2.604-2.189,4.216-2.84
		c1.611-0.647,3.33-0.973,5.155-0.973c2.226,0,4.201,0.439,5.94,1.33c1.733,0.879,3.064,1.982,3.992,3.284
		c0.92,1.306,1.388,2.535,1.388,3.698c0,0.64-0.23,1.196-0.677,1.689c-0.448,0.483-0.993,0.728-1.632,0.728
		c-0.71,0-1.247-0.171-1.599-0.504c-0.358-0.338-0.755-0.92-1.188-1.746c-0.73-1.363-1.581-2.38-2.56-3.056
		c-0.985-0.671-2.187-1.013-3.627-1.013c-2.289,0-4.104,0.87-5.46,2.604c-1.357,1.737-2.035,4.208-2.035,7.406
		c0,2.136,0.301,3.914,0.901,5.334c0.596,1.42,1.446,2.479,2.547,3.178c1.099,0.7,2.385,1.05,3.862,1.05
		c1.599,0,2.95-0.395,4.055-1.188c1.106-0.794,1.939-1.958,2.502-3.5c0.236-0.724,0.531-1.31,0.881-1.77
		c0.348-0.456,0.909-0.688,1.683-0.688c0.665,0,1.235,0.231,1.709,0.699C525.563,999.017,525.799,999.591,525.799,1000.278z"/>
	<path fill-rule="evenodd" clip-rule="evenodd" fill="#FFFFFF" d="M536.393,984.389v7.873h12.012v-7.873
		c0-1.119,0.254-1.966,0.761-2.527c0.504-0.562,1.17-0.842,1.996-0.842c0.833,0,1.51,0.272,2.026,0.83
		c0.519,0.558,0.781,1.399,0.781,2.539v21.639c0,1.136-0.262,1.981-0.787,2.543c-0.525,0.566-1.203,0.847-2.021,0.847
		c-0.84,0-1.509-0.28-2.01-0.851c-0.499-0.569-0.747-1.416-0.747-2.539v-9.236h-12.012v9.236c0,1.136-0.263,1.981-0.788,2.543
		c-0.525,0.566-1.202,0.847-2.02,0.847c-0.838,0-1.51-0.28-2.01-0.851c-0.499-0.569-0.747-1.416-0.747-2.539v-21.639
		c0-1.127,0.248-1.966,0.74-2.527c0.495-0.562,1.166-0.842,2.017-0.842c0.83,0,1.509,0.272,2.026,0.83
		C536.13,982.407,536.393,983.258,536.393,984.389z"/>
	<path fill-rule="evenodd" clip-rule="evenodd" fill="#FFFFFF" d="M577.531,1005.841l-1.313-3.447h-11.166l-1.312,3.516
		c-0.511,1.376-0.946,2.304-1.31,2.783c-0.358,0.48-0.952,0.725-1.778,0.725c-0.698,0-1.318-0.256-1.854-0.769
		c-0.539-0.513-0.808-1.095-0.808-1.742c0-0.374,0.063-0.765,0.185-1.163c0.128-0.403,0.333-0.952,0.623-1.669l7.021-17.83
		c0.206-0.513,0.441-1.127,0.722-1.844c0.283-0.724,0.582-1.318,0.903-1.79c0.32-0.472,0.735-0.858,1.253-1.151
		c0.517-0.293,1.158-0.439,1.918-0.439c0.779,0,1.426,0.146,1.945,0.439c0.517,0.293,0.934,0.671,1.251,1.131
		c0.321,0.464,0.59,0.961,0.808,1.489c0.218,0.533,0.499,1.245,0.832,2.124l7.174,17.725c0.563,1.352,0.844,2.328,0.844,2.942
		c0,0.635-0.26,1.221-0.792,1.754c-0.531,0.528-1.178,0.793-1.924,0.793c-0.436,0-0.814-0.077-1.127-0.236
		c-0.307-0.154-0.567-0.366-0.785-0.635c-0.211-0.269-0.436-0.684-0.68-1.236C577.915,1006.756,577.709,1006.264,577.531,1005.841
		L577.531,1005.841z M566.518,998.211h8.206l-4.138-11.32L566.518,998.211z"/>
	<path fill-rule="evenodd" clip-rule="evenodd" fill="#FFFFFF" d="M602.026,986.081h-6.069v19.946c0,1.151-0.256,2.002-0.775,2.556
		c-0.511,0.558-1.176,0.834-1.988,0.834c-0.826,0-1.503-0.28-2.022-0.847c-0.517-0.562-0.779-1.407-0.779-2.543v-19.946h-6.071
		c-0.952,0-1.656-0.207-2.116-0.622c-0.46-0.424-0.698-0.98-0.698-1.673c0-0.708,0.244-1.27,0.723-1.688
		c0.48-0.415,1.176-0.618,2.091-0.618h17.704c0.966,0,1.677,0.211,2.15,0.639c0.466,0.427,0.702,0.984,0.702,1.668
		c0,0.692-0.242,1.249-0.716,1.673C603.69,985.874,602.98,986.081,602.026,986.081z"/>
</g>
<path fill-rule="evenodd" clip-rule="evenodd" fill="#593F2E" d="M1120.798,855.407c80.32,0,145.831-13.57,145.831-30.208
	s-65.511-30.208-145.831-30.208c-80.322,0-145.835,13.57-145.835,30.208S1040.476,855.407,1120.798,855.407z"/>
<path fill-rule="evenodd" clip-rule="evenodd" fill="#593F2E" d="M1712.463,855.407c80.322,0,145.837-13.57,145.837-30.208
	s-65.515-30.208-145.837-30.208s-145.834,13.57-145.834,30.208S1632.141,855.407,1712.463,855.407z"/>
<path fill-rule="evenodd" clip-rule="evenodd" fill="#593F2E" d="M450.832,1652.414c80.322,0,145.833-13.57,145.833-30.208
	c0-16.639-65.511-30.209-145.833-30.209c-80.322,0-145.833,13.57-145.833,30.209C304.999,1638.844,370.51,1652.414,450.832,1652.414
	z"/>
<path fill-rule="evenodd" clip-rule="evenodd" fill="#593F2E" d="M1120.798,1652.414c80.32,0,145.831-13.57,145.831-30.208
	c0-16.639-65.511-30.209-145.831-30.209c-80.322,0-145.835,13.57-145.835,30.209
	C974.963,1638.844,1040.476,1652.414,1120.798,1652.414z"/>
<path fill-rule="evenodd" clip-rule="evenodd" fill="#593F2E" d="M1712.463,1652.414c80.322,0,145.837-13.57,145.837-30.208
	c0-16.639-65.515-30.209-145.837-30.209s-145.834,13.57-145.834,30.209C1566.629,1638.844,1632.141,1652.414,1712.463,1652.414z"/>
</svg>
